<?xml version="1.0" encoding="utf-8"?>
<!-- Generator: Adobe Illustrator 21.1.0, SVG Export Plug-In . SVG Version: 6.00 Build 0)  -->
<svg version="1.1" id="Capa_1" xmlns="http://www.w3.org/2000/svg" xmlns:xlink="http://www.w3.org/1999/xlink" x="0px" y="0px"
	 width="52px" height="52px" viewBox="0 0 52 52" enable-background="new 0 0 52 52" xml:space="preserve">
<g>
	<g id="settings">
		<path fill="#FFFFFF" d="M44.71,28.64c0-0.75,0.26-1.51,0.26-2.51c0-1.01,0-1.76-0.26-2.51l5.36-4.27c0.51-0.5,0.51-1.01,0.26-1.51
			l-5.1-8.79c-0.26-0.25-0.77-0.5-1.53-0.25l-6.38,2.51c-1.28-1.01-2.81-1.76-4.34-2.51l-1.02-6.53C32.21,1.5,31.45,1,30.94,1h-10.2
			c-0.51,0-1.28,0.5-1.28,1.01l-1.02,6.78c-1.53,0.5-2.81,1.51-4.34,2.51L7.99,8.79c-0.77-0.25-1.28,0-1.79,0.5l-5.1,8.79
			c-0.26,0.25,0,1.01,0.51,1.51l5.36,4.02c0,0.75-0.26,1.51-0.26,2.51s0,1.76,0.26,2.51l-5.36,4.27c-0.51,0.5-0.51,1.01-0.26,1.51
			l5.1,8.79c0.26,0.25,0.77,0.5,1.53,0.25l6.38-2.51c1.28,1.01,2.81,1.76,4.34,2.51l1.02,6.53c0,0.5,0.51,1.01,1.28,1.01h10.2
			c0.51,0,1.28-0.5,1.28-1.01l1.02-6.53c1.53-0.75,3.06-1.51,4.34-2.51l6.38,2.51c0.51,0.25,1.28,0,1.53-0.5l5.1-8.79
			c0.26-0.5,0.26-1.26-0.26-1.51L44.71,28.64z M25.84,34.92c-4.85,0-8.93-4.02-8.93-8.79s4.08-8.79,8.93-8.79s8.93,4.02,8.93,8.79
			S30.68,34.92,25.84,34.92z"/>
	</g>
</g>
</svg>
